# File created by Blade
# Date/Time:  Thu Sep 25 17:43:48 2014
# Frame Rate: 120.000 fps
#------------------------------------------------------
:FULLY-SPECIFIED
:DEGREES
177
root -29.719527 31.637032 0.083495 -271.559622 -91.499638 -77.158205
Spine -10.804040 -0.497033 1.861618
Head -9.507343 2.198183 4.170462
LeftShoulder -6.849311 21.469006 5.838068
LeftArm 38.004193 50.420775 -52.298849
LeftForeArm 0.848518 0.000000 14.259089
LeftHand -28.168406 -0.000000 -5.181011
LeftHandThumb1 -26.253704 0.000000 33.147579
RightShoulder -17.296767 4.588730 -23.636679
RightArm -21.373909 -38.558541 96.622089
RightForeArm -16.319571 0.000000 24.801107
RightHand -5.424081 -0.000000 12.903897
RightHandThumb1 -24.326973 -0.000000 -32.862282
LeftUpLeg 7.556277 -8.263493 -7.957897
LeftLeg 18.211345 -0.000000 -0.000000
LeftFoot -3.843505 7.822012 344.604881
LeftToeBase -27.913261 -0.000000 0.000000
RightUpLeg -26.455551 -7.400161 2.732551
RightLeg 2.420540 -0.000000 -0.000000
RightFoot 6.330443 9.543741 -0.298492
RightToeBase -4.740527 -0.000000 0.000000
178
root -30.034613 31.699974 0.020520 -287.477893 -90.654507 -61.373958
Spine -10.639310 0.102193 3.122509
Head -9.796772 2.427150 3.681403
LeftShoulder -7.347962 22.074566 5.433290
LeftArm 37.458533 50.045067 -52.517168
LeftForeArm 0.924821 -0.000000 14.845525
LeftHand -27.980412 -0.000000 -4.372376
LeftHandThumb1 -26.253704 0.000000 33.147579
RightShoulder -17.212171 4.594733 -23.631536
RightArm -20.948590 -38.846712 96.308100
RightForeArm -16.399147 -0.000000 24.548605
RightHand -5.401979 -0.000000 13.051163
RightHandThumb1 -24.326973 -0.000000 -32.862282
LeftUpLeg 7.356763 -7.520881 -6.938825
LeftLeg 19.522003 -0.000000 -0.000000
LeftFoot -2.457406 7.887306 344.533084
LeftToeBase -29.213361 -0.000000 0.000000
RightUpLeg -25.651229 -6.486426 3.303858
RightLeg 2.449714 -0.000000 -0.000000
RightFoot 6.110870 8.471835 0.047414
RightToeBase -3.400909 -0.000000 0.000000
179
root -30.362561 31.763568 -0.040956 -209.166580 -89.633836 -140.033281
Spine -10.216759 0.684572 4.225161
Head -10.079741 2.654854 3.352531
LeftShoulder -7.712371 22.395469 5.341710
LeftArm 36.605330 49.826199 -53.201780
LeftForeArm 0.629747 -0.000000 15.372488
LeftHand -27.672783 0.000000 -4.439441
LeftHandThumb1 -26.253704 0.000000 33.147579
RightShoulder -17.093386 4.745644 -23.693095
RightArm -20.679073 -38.848711 96.154280
RightForeArm -16.679723 0.000000 24.294508
RightHand -5.328803 -0.000000 13.052746
RightHandThumb1 -24.326973 -0.000000 -32.862282
LeftUpLeg 7.301827 -6.682235 -5.987494
LeftLeg 20.931728 -0.000000 -0.000000
LeftFoot -0.903617 7.988065 344.619181
LeftToeBase -30.587722 -0.000000 0.000000
RightUpLeg -24.535814 -6.043154 4.022864
RightLeg 1.984761 -0.000000 -0.000000
RightFoot 6.065479 8.371743 -1.964748
RightToeBase -1.224882 -0.000000 0.000000
180
root -30.690502 31.828382 -0.099696 -249.411949 -89.070295 -100.210267
Spine -9.712338 1.187574 5.124841
Head -10.366903 2.781033 3.173263
LeftShoulder -7.985522 22.641280 5.516071
LeftArm 35.683940 49.512803 -54.160285
LeftForeArm 0.626738 -0.000000 15.874824
LeftHand -27.308018 -0.000000 -3.941435
LeftHandThumb1 -26.253704 0.000000 33.147579
RightShoulder -16.995782 4.934035 -23.797057
RightArm -20.513546 -38.786878 96.149246
RightForeArm -16.930434 -0.000000 24.121867
RightHand -5.348828 0.000000 13.014584
RightHandThumb1 -24.326973 -0.000000 -32.862282
LeftUpLeg 7.248986 -5.843855 -5.120272
LeftLeg 22.432449 -0.000000 -0.000000
LeftFoot 0.615021 8.019359 344.872344
LeftToeBase -31.090272 -0.000000 0.000000
RightUpLeg -23.394465 -6.061313 4.828709
RightLeg 1.703410 -0.000000 -0.000000
RightFoot 6.142207 8.336472 -3.106774
RightToeBase -0.682489 -0.000000 0.000000
181
root -30.999043 31.892717 -0.148641 -258.607068 -88.609054 -91.417710
Spine -9.183461 1.700998 5.703011
Head -10.681832 2.810239 3.200263
LeftShoulder -8.134279 22.804946 5.928643
LeftArm 34.812556 49.219187 -55.151810
LeftForeArm 0.399731 -0.000000 16.399351
LeftHand -26.972835 0.000000 -3.808295
LeftHandThumb1 -26.253704 0.000000 33.147579
RightShoulder -16.917345 5.143410 -23.866708
RightArm -20.388024 -38.500808 96.173936
RightForeArm -17.168305 0.000000 24.092110
RightHand -5.446176 -0.000000 12.928280
RightHandThumb1 -24.326973 -0.000000 -32.862282
LeftUpLeg 7.065844 -4.966676 -4.418755
LeftLeg 24.027271 -0.000000 -0.000000
LeftFoot 2.165843 7.986345 345.365058
LeftToeBase -31.125278 -0.000000 0.000000
RightUpLeg -22.379161 -5.958922 5.354971
RightLeg 1.637716 -0.000000 -0.000000
RightFoot 5.919433 7.653077 -4.015111
RightToeBase -1.022630 -0.000000 0.000000
182
root -31.304321 31.956596 -0.197543 -271.226586 -88.282148 -79.177796
Spine -8.745816 2.028585 6.012199
Head -10.968227 2.795531 3.527172
LeftShoulder -8.166410 22.919812 6.503719
LeftArm 33.787312 48.830670 -56.305377
LeftForeArm 0.049698 -0.000000 16.943702
LeftHand -26.509283 -0.000000 -3.821533
LeftHandThumb1 -26.253704 0.000000 33.147579
RightShoulder -16.817420 5.305668 -23.871947
RightArm -20.300329 -38.275055 96.331278
RightForeArm -17.161800 -0.000000 23.953218
RightHand -5.430623 -0.000000 12.614338
RightHandThumb1 -24.326973 -0.000000 -32.862282
LeftUpLeg 6.796137 -4.102900 -3.756021
LeftLeg 25.664588 -0.000000 -0.000000
LeftFoot 3.749945 7.790145 345.859918
LeftToeBase -30.773416 -0.000000 0.000000
RightUpLeg -21.467722 -6.229343 5.812991
RightLeg 1.688015 -0.000000 -0.000000
RightFoot 5.537855 7.145175 -5.302252
RightToeBase -1.097133 -0.000000 0.000000
183
root -31.603952 32.016151 -0.241774 -285.393388 -87.975767 -65.380256
Spine -8.337621 2.251065 6.138030
Head -11.126582 2.624535 3.743845
LeftShoulder -8.099245 22.935786 7.145679
LeftArm 32.716207 48.452617 -57.441792
LeftForeArm -0.483795 -0.000000 17.580724
LeftHand -26.303776 -0.000000 -4.261540
LeftHandThumb1 -26.253704 0.000000 33.147579
RightShoulder -16.735368 5.435499 -23.829868
RightArm -20.294865 -37.975293 96.472591
RightForeArm -17.259191 0.000000 23.973592
RightHand -5.175211 -0.000000 12.106625
RightHandThumb1 -24.326973 -0.000000 -32.862282
LeftUpLeg 6.579267 -3.386185 -3.206694
LeftLeg 27.109236 -0.000000 -0.000000
LeftFoot 5.257082 7.683247 346.786098
LeftToeBase -30.188573 -0.000000 0.000000
RightUpLeg -20.658334 -6.853879 6.180307
RightLeg 1.824555 -0.000000 -0.000000
RightFoot 5.008952 6.601159 -6.260757
RightToeBase 1.308663 -0.000000 -0.000000
184
root -31.889790 32.072333 -0.277854 -300.707180 -87.654653 -50.413281
Spine -7.938406 2.379085 6.009209
Head -11.329150 2.437400 4.104268
LeftShoulder -7.933054 22.852268 7.821033
LeftArm 31.557417 47.958977 -58.614247
LeftForeArm -0.964319 -0.000000 18.228702
LeftHand -26.218819 -0.000000 -4.746825
LeftHandThumb1 -26.253704 0.000000 33.147579
RightShoulder -16.697158 5.502550 -23.720672
RightArm -20.196336 -37.737006 96.569385
RightForeArm -17.059136 -0.000000 24.106370
RightHand -5.342568 -0.000000 12.205233
RightHandThumb1 -24.326973 -0.000000 -32.862282
LeftUpLeg 6.397124 -2.878263 -2.843951
LeftLeg 28.343906 -0.000000 -0.000000
LeftFoot 7.123317 7.885522 348.513906
LeftToeBase -30.157509 -0.000000 0.000000
RightUpLeg -19.933938 -7.784056 6.383896
RightLeg 1.980105 -0.000000 -0.000000
RightFoot 4.519301 6.015685 -7.166812
RightToeBase 1.519880 -0.000000 -0.000000
185
root -32.155855 32.125705 -0.308718 -315.273971 -87.231692 -36.081182
Spine -7.644710 2.445165 5.683532
Head -11.533456 2.339124 4.587474
LeftShoulder -7.727725 22.762248 8.481767
LeftArm 30.684712 47.654911 -59.339251
LeftForeArm -1.729133 -0.000000 18.943829
LeftHand -26.031425 -0.000000 -4.992738
LeftHandThumb1 -26.253704 0.000000 33.147579
RightShoulder -16.722995 5.559871 -23.572641
RightArm -20.097243 -37.722429 96.709806
RightForeArm -16.691162 0.000000 24.295432
RightHand -5.323325 -0.000000 12.072030
RightHandThumb1 -24.326973 -0.000000 -32.862282
LeftUpLeg 6.133107 -2.513264 -2.624276
LeftLeg 29.387318 -0.000000 -0.000000
LeftFoot 8.908748 8.061040 349.906969
LeftToeBase -30.135859 -0.000000 0.000000
RightUpLeg -19.405506 -8.474925 6.316605
RightLeg 2.420010 -0.000000 -0.000000
RightFoot 3.722730 5.876981 -7.809668
RightToeBase 2.043538 -0.000000 -0.000000
